<?xml version="1.0" encoding="UTF-8" standalone="no"?>
<svg width="800px" height="800px" viewBox="0 0 800 800" version="1.1" xmlns="http://www.w3.org/2000/svg" xmlns:xlink="http://www.w3.org/1999/xlink" xmlns:sketch="http://www.bohemiancoding.com/sketch/ns">
    <!-- Generator: Sketch 3.3.2 (12043) - http://www.bohemiancoding.com/sketch -->
    <title>fok-chow-logo</title>
    <desc>Created with Sketch.</desc>
    <defs></defs>
    <g id="logo" stroke="none" stroke-width="1" fill="none" fill-rule="evenodd" sketch:type="MSPage">
        <g id="final" sketch:type="MSLayerGroup">
            <circle id="Oval-2" fill="#000000" sketch:type="MSShapeGroup" cx="400" cy="400" r="400"></circle>
            <path d="M291.134766,245.544922 L243.849609,245.544922 L243.849609,278.152344 L289.464844,278.152344 L289.464844,297.400391 L243.849609,297.400391 L243.849609,362 L223.371094,362 L223.371094,226.296875 L291.134766,226.296875 L291.134766,245.544922 Z M315.273438,293.533203 C315.273438,274.431545 322.275321,258.025459 336.279297,244.314453 C350.224679,230.603447 366.982324,223.748047 386.552734,223.748047 C405.888769,223.748047 422.470634,230.66204 436.298828,244.490234 C450.185616,258.318429 457.128906,274.929591 457.128906,294.324219 C457.128906,313.836035 450.15632,330.388604 436.210938,343.982422 C422.206961,357.634834 405.302833,364.460938 385.498047,364.460938 C367.978428,364.460938 352.246163,358.396545 338.300781,346.267578 C322.949142,332.849542 315.273438,315.271593 315.273438,293.533203 L315.273438,293.533203 Z M335.927734,293.796875 C335.927734,308.79695 340.966746,321.130811 351.044922,330.798828 C361.064503,340.466845 372.636653,345.300781 385.761719,345.300781 C400.000071,345.300781 412.01167,340.378955 421.796875,330.535156 C431.58208,320.574169 436.474609,308.445384 436.474609,294.148438 C436.474609,279.675709 431.640673,267.546924 421.972656,257.761719 C412.363233,247.91792 400.468821,242.996094 386.289062,242.996094 C372.167898,242.996094 360.244189,247.91792 350.517578,257.761719 C340.790967,267.48833 335.927734,279.499929 335.927734,293.796875 L335.927734,293.796875 Z M510.359375,280.4375 L563.181641,226.296875 L590.515625,226.296875 L529.167969,287.732422 L590.867188,362 L563.445312,362 L514.578125,301.619141 L510.359375,305.837891 L510.359375,362 L489.880859,362 L489.880859,226.296875 L510.359375,226.296875 L510.359375,280.4375 Z" id="FOK" fill="#D50000" sketch:type="MSShapeGroup"></path>
            <path d="M199.216797,448.712391 L199.216797,472.970203 C187.3808,463.06781 175.134829,458.116687 162.478516,458.116687 C148.533133,458.116687 136.785204,463.126403 127.234375,473.145984 C117.624952,483.106972 112.820312,495.29435 112.820312,509.708484 C112.820312,523.946837 117.624952,535.958435 127.234375,545.743641 C136.843798,555.528846 148.621024,560.421375 162.566406,560.421375 C169.773474,560.421375 175.896459,559.249512 180.935547,556.90575 C183.748061,555.733869 186.663071,554.151854 189.680664,552.159656 C192.698257,550.167459 195.876936,547.765139 199.216797,544.952625 L199.216797,569.649891 C187.497988,576.271017 175.193424,579.581531 162.302734,579.581531 C142.908106,579.581531 126.355537,572.814021 112.644531,559.278797 C98.9921192,545.626385 92.1660156,529.161706 92.1660156,509.884266 C92.1660156,492.599023 97.8788491,477.189021 109.304688,463.653797 C123.367258,447.071683 141.560435,438.78075 163.884766,438.78075 C176.072327,438.78075 187.849553,442.091264 199.216797,448.712391 L199.216797,448.712391 Z M256.314453,494.503406 L314.849609,494.503406 L314.849609,441.417469 L335.328125,441.417469 L335.328125,577.120594 L314.849609,577.120594 L314.849609,513.751453 L256.314453,513.751453 L256.314453,577.120594 L235.835938,577.120594 L235.835938,441.417469 L256.314453,441.417469 L256.314453,494.503406 Z M368.080078,508.653797 C368.080078,489.552139 375.081961,473.146053 389.085938,459.435047 C403.03132,445.724041 419.788965,438.868641 439.359375,438.868641 C458.695409,438.868641 475.277275,445.782634 489.105469,459.610828 C502.992257,473.439022 509.935547,490.050184 509.935547,509.444812 C509.935547,528.956629 502.96296,545.509198 489.017578,559.103016 C475.013602,572.755428 458.109474,579.581531 438.304688,579.581531 C420.785069,579.581531 405.052804,573.517139 391.107422,561.388172 C375.755783,547.970136 368.080078,530.392187 368.080078,508.653797 L368.080078,508.653797 Z M549.367188,441.417469 L584.699219,532.120594 L621.613281,434.825672 L656.945312,532.120594 L694.474609,441.417469 L716.710938,441.417469 L656.066406,585.733875 L621.173828,489.581531 L584.787109,585.821766 L527.130859,441.417469 L549.367188,441.417469 Z" id="CHOW" fill="#B9B03C" sketch:type="MSShapeGroup"></path>
        </g>
    </g>
</svg>