<?xml version="1.0" encoding="UTF-8" standalone="no"?>
<svg width="732px" height="412px" viewBox="0 0 732 412" version="1.1" xmlns="http://www.w3.org/2000/svg" xmlns:xlink="http://www.w3.org/1999/xlink" xmlns:sketch="http://www.bohemiancoding.com/sketch/ns">
    <!-- Generator: Sketch 3.3.3 (12072) - http://www.bohemiancoding.com/sketch -->
    <title>signature copy</title>
    <desc>Created with Sketch.</desc>
    <defs>
        <filter x="-50%" y="-50%" width="200%" height="200%" filterUnits="objectBoundingBox" id="filter-1">
            <feOffset dx="0" dy="2" in="SourceAlpha" result="shadowOffsetOuter1"></feOffset>
            <feGaussianBlur stdDeviation="6" in="shadowOffsetOuter1" result="shadowBlurOuter1"></feGaussianBlur>
            <feColorMatrix values="0 0 0 0 0   0 0 0 0 0   0 0 0 0 0  0 0 0 0.410929008 0" in="shadowBlurOuter1" type="matrix" result="shadowMatrixOuter1"></feColorMatrix>
            <feMerge>
                <feMergeNode in="shadowMatrixOuter1"></feMergeNode>
                <feMergeNode in="SourceGraphic"></feMergeNode>
            </feMerge>
        </filter>
    </defs>
    <g id="Page-1" stroke="none" stroke-width="1" fill="none" fill-rule="evenodd" sketch:type="MSPage">
        <g id="signature" sketch:type="MSLayerGroup" transform="translate(12.000000, 10.000000)" filter="url(#filter-1)" fill="#D50000">
            <path d="M105.826,2.84206832 C104.369,7.5043731 100.541,57.95285 99.071,91.8594211 C98.293,109.794775 96.877,125.741793 95.923,127.297576 C93.164,131.798555 89.89,126.89527 86.238,112.791395 C81.601,94.8903225 73.394,81.4075502 67.636,82.2363595 C63.205,82.873595 63.124,83.6116588 63.777,117.211712 C64.452,151.987423 65.591,157.022793 72.783,157.022793 C77.747,157.022793 78.71,153.692432 76.812,143.093351 C75.962,138.344334 74.651,127.207838 73.898,118.343006 L72.531,102.226596 L79.17,118.343006 C82.822,127.207838 87.17,139.717617 88.833,146.14341 C91.932,158.123839 94.796,161.738537 100.406,160.753444 C102.74,160.34408 103.695,157.009686 103.946,148.399949 C104.134,141.914667 105.333,129.044932 106.609,119.799976 C107.886,110.554013 108.93,87.2233317 108.93,67.9530097 C108.93,40.4127432 109.574,32.3767205 111.938,30.3994757 C113.84,28.8063871 115.42,28.6591777 116.24,29.9961622 C118.167,33.1409997 122.25,117.669472 121.909,147.352342 C121.337,197.00125 127.243,237.461667 138.126,258.446071 C146.413,274.426363 154.527,281.655758 164.175,281.655758 C172.114,281.655758 179.26,276.740374 179.26,271.279509 C179.26,268.214326 179.322,268.215334 171.204,271.068777 C162.204,274.232772 157.663,271.340006 149.95,257.530549 C137.736,235.664905 131.924,202.993481 132.484,159.347896 C132.933,124.337254 132.923,123.959147 130.378,78.5893966 C127.257,22.974473 121.039,0.156 109.004,0.156 C107.718,0.156 106.288,1.3649324 105.826,2.84206832 M540.153,30.5597929 C526.534,33.6421168 525.784,35.5215579 528.592,59.5267811 C529.927,70.9345052 530.427,80.8580354 529.705,81.5779501 C528.982,82.2978648 526.32,82.8877109 523.789,82.8877109 C520.099,82.8877109 519.186,84.1611735 519.186,89.312496 C519.186,94.7663036 520.153,95.9107058 525.58,96.8786584 C532.577,98.1279221 533.208,101.065053 530.508,119.844341 C528.9,131.030243 532.757,138.079155 538.059,133.642706 C540.562,131.5485 541.563,125.875895 542.019,111.207381 L542.629,91.5760933 L549.023,89.6462379 C552.539,88.584515 558.896,86.2947022 563.148,84.5564208 C567.401,82.8181393 572.577,81.7322176 574.652,82.1415808 C577.983,82.7999902 577.762,83.6802221 572.752,89.678503 C559.505,105.540825 557.278,121.62497 566.974,131.401291 C579.939,144.473692 606.705,137.523591 631.102,114.748474 C640.013,106.43114 644.124,100.850289 645.064,95.7957615 C647.024,85.2612112 644.612,79.6642273 638.11,79.6642273 C633.005,79.6642273 632.731,80.1814769 633.922,87.5842974 C635.069,94.7118563 634.392,96.2726798 627.164,103.163292 C611.247,118.337965 602.413,123.040601 587.568,124.242475 C574.226,125.322347 573.709,125.177154 572.422,120.007683 C569.426,107.97079 584.914,87.1789672 602.56,79.5533161 C609.994,76.3399153 611.893,74.4362752 611.893,70.1974497 C611.893,67.2704015 610.926,64.2727735 609.744,63.5367262 C607.237,61.9748945 582.342,67.4539092 563.941,73.6175487 C556.908,75.9728999 548.756,78.0560145 545.826,78.2455718 C540.528,78.5873801 540.502,78.4986511 541.206,62.4729867 C542.042,43.4658268 544.601,40.206045 557.547,41.6559572 C562.236,42.1812731 568.23,43.3246671 570.868,44.1968327 C575.001,45.5650739 575.663,45.0246337 575.663,40.2826745 C575.663,29.3700178 561.972,25.6212183 540.153,30.5597929 M245.107,69.4573693 C244.985,70.9345052 245.071,79.7075835 245.297,88.9525386 C245.622,102.24777 244.941,106.616664 242.04,109.849223 C238.632,113.645411 238.619,114.314912 241.849,119.28676 C243.762,122.230949 245.339,128.298801 245.352,132.772557 C245.414,152.688181 255.531,174.213026 264.83,174.213026 C269.926,174.213026 275.699,165.004369 275.993,156.405724 C276.293,147.632645 272.796,146.140385 269.187,153.500858 C263.198,165.715209 258.39,157.474504 256.602,131.931648 C255.452,115.496621 255.749,113.085814 259.249,110.505615 C261.417,108.907485 265.257,107.598733 267.782,107.598733 C273.151,107.598733 280.478,100.30884 278.444,96.9905779 C276.609,93.9979913 270.316,94.0877285 263.533,97.2043341 C260.543,98.5776168 257.466,99.0666345 256.696,98.2902559 C255.927,97.5138772 256.555,91.589201 258.094,85.1230763 C260.361,75.5937852 260.376,72.7423583 258.176,70.0693977 C254.918,66.110875 245.418,65.6662218 245.107,69.4573693 M298.654,84.4989486 C298.708,92.4452341 305.315,102.538156 308.971,100.260443 C311.998,98.3739434 312.129,87.2122406 309.188,81.6717205 C307.975,79.3859409 305.098,77.5155743 302.794,77.5155743 C299.481,77.5155743 298.617,78.9735528 298.654,84.4989486 M0.239,110.822217 C0.239,112.59478 1.678,114.0457 3.436,114.0457 C5.194,114.0457 6.633,112.59478 6.633,110.822217 C6.633,109.049653 5.194,107.598733 3.436,107.598733 C1.678,107.598733 0.239,109.049653 0.239,110.822217 M328.444,111.897047 C326.099,114.260465 324.181,117.185496 324.181,118.396445 C324.181,119.607394 321.715,121.544308 318.702,122.698793 C314.363,124.362461 313.364,126.022096 313.906,130.664235 C314.428,135.13295 313.577,136.71898 310.329,137.327984 C307.984,137.767596 304.329,139.68031 302.207,141.579917 C298.856,144.577545 298.086,144.619893 296.368,141.89551 C295.28,140.169328 295.014,137.30681 295.777,135.534247 C296.541,133.761684 297.59,128.69304 298.108,124.270707 C299.157,115.330254 294.726,111.417104 288.99,116.217544 C284.103,120.306135 284.609,148.591523 289.682,154.908422 C294.601,161.034755 300.495,159.359995 305.536,150.403409 C310.3,141.938866 314.591,143.327273 314.591,153.335499 C314.591,157.607598 315.725,162.24772 317.112,163.64621 C322.012,168.588818 325.652,164.105988 327.134,151.302799 C329.244,133.086133 332.432,122.64132 335.883,122.64132 C337.576,122.64132 342.612,130.63802 347.384,140.906383 C352.517,151.952134 357.141,159.171446 359.082,159.171446 C364.593,159.171446 365.148,155.088905 360.916,145.682624 C358.671,140.691619 354.556,131.441622 351.772,125.125732 C344.298,108.175471 336.513,103.760196 328.444,111.897047 M155.051,116.867887 C148.504,125.763976 145.161,136.097877 145.161,147.435022 C145.161,166.354461 159.579,171.870782 167.155,155.851167 C170.975,147.773805 175.521,146.892565 176.816,153.977776 C177.977,160.330973 183.878,165.875526 188.733,165.175777 C191.886,164.721041 194.102,161.533855 196.646,153.79931 C201.054,140.395183 205.253,139.930365 207.399,152.607518 C209.182,163.134002 213.518,168.990115 218.191,167.182262 C220.306,166.363535 221.632,160.656648 222.577,148.301138 C223.466,136.674616 225.102,129.289944 227.341,126.794442 C232.494,121.053273 230.566,112.97087 224.044,112.97087 C220.377,112.97087 218.551,114.293738 218.114,117.269184 C216.499,128.265528 212.561,139.922298 210.676,139.288088 C209.529,138.902923 208.208,134.305149 207.74,129.072155 C206.775,118.26436 204.863,115.462339 199.2,116.55431 C196.062,117.159281 194.968,119.978443 193.909,130.186309 C192.457,144.176248 190.486,150.575826 187.632,150.575826 C183.946,150.575826 181.391,141.944916 181.391,129.491601 C181.391,115.171953 179.865,113.081781 168.077,111.256787 C160.92,110.148683 159.567,110.730463 155.051,116.867887 M167.809,130.485769 C170.236,140.235875 159.28,155.815877 154.957,148.762932 C154.346,147.765739 154.868,143.171997 156.118,138.556074 C159.984,124.278773 165.343,120.57938 167.809,130.485769 M380.412,113.541558 C375.03,117.114916 368.711,133.753617 369.354,142.660797 L370.002,151.650657 L381.816,151.617383 C391.838,151.589151 395.423,150.383244 405.455,143.669081 C417.82,135.394095 428.61,123.15857 428.61,117.41236 C428.61,112.607887 422.744,113.248148 419.57,118.39947 C416.802,122.892383 396.262,138.106379 389.784,140.46173 C383.805,142.63559 383.234,138.185025 388.172,127.899521 C391.901,120.13271 392.3,117.612 390.204,115.066083 C387.352,111.60162 384.097,111.094453 380.412,113.541558 M526.645,165.986437 C450.972,169.519464 338.081,185.702421 257.049,204.632951 C231.962,210.494105 218.58,211.733286 197.645,210.137173 C189.081,209.483805 185.513,215.395373 190.869,221.362398 C196.611,227.759959 207.921,227.088442 247.018,218.031027 C284.378,209.375918 284.507,209.350711 330.575,201.211844 C348.743,198.002476 368.404,194.509781 374.265,193.449066 C391.624,190.30927 431.702,185.214411 465.906,181.798345 C483.488,180.041915 504.108,177.969891 511.727,177.194521 C541.386,174.173703 677.539,177.369962 681.313,181.175226 C683.973,183.857261 679.698,187.057554 669.298,190.172143 C652.724,195.134917 594.9,220.355122 561.906,237.011972 C476.194,280.283484 397.716,338.530029 393.324,362.133955 C391.845,370.081249 396.429,381.235893 402.525,384.524916 C416.402,392.012432 446.672,387.437848 495.739,370.437173 C510.979,365.15679 526.326,360.097221 529.842,359.192791 C539.939,356.595451 550.359,350.450969 548.848,347.985715 C546.922,344.842894 536.374,347.04297 506.399,356.838448 C476.128,366.730721 442.399,375.457418 427.545,377.239056 C413.45,378.92894 406.466,375.320292 405.559,365.877713 C404.995,360.004459 406.46,357.260919 414.617,348.919386 C419.969,343.445413 424.348,338.15898 424.348,337.17187 C424.348,336.18476 425.573,335.377125 427.069,335.377125 C428.566,335.377125 432.976,332.444027 436.868,328.859578 C446.332,320.14498 471.212,301.871851 488.284,291.098337 C522.75,269.347637 539.63,259.42814 550.088,254.778943 C554.191,252.955965 559.466,250.360643 561.81,249.012567 C564.154,247.664491 570.388,244.437983 575.663,241.84266 C580.937,239.247337 591.4,234.088957 598.914,230.380489 C606.427,226.671012 613.951,223.637086 615.634,223.637086 C617.317,223.637086 621.24,222.226497 624.351,220.502331 C632.977,215.722057 648.448,209.342645 655.549,207.638645 C659.047,206.798745 666.719,203.91102 672.599,201.221927 C678.478,198.531825 688.324,194.661023 694.479,192.620257 C703.128,189.751689 705.974,187.691765 707.004,183.552759 C707.737,180.606554 707.496,177.378029 706.469,176.377811 C702.363,172.38299 661.757,167.498863 619.371,165.900733 C569.004,164.003143 569.137,164.002134 526.645,165.986437 M585.405,345.200835 C583.563,347.058094 582.056,349.538472 582.056,350.714131 C582.056,355.385511 586.686,361.163986 590.428,361.163986 C594.951,361.163986 596.975,357.122784 596.975,348.09461 C596.975,343.333493 595.985,341.824092 592.865,341.824092 C590.604,341.824092 587.247,343.343576 585.405,345.200835" id="Fill-3" sketch:type="MSShapeGroup"></path>
        </g>
    </g>
</svg>