<?xml version="1.0" encoding="UTF-8" standalone="no"?>
<svg width="267px" height="267px" viewBox="0 0 267 267" version="1.1" xmlns="http://www.w3.org/2000/svg" xmlns:xlink="http://www.w3.org/1999/xlink" xmlns:sketch="http://www.bohemiancoding.com/sketch/ns">
    <!-- Generator: Sketch 3.3.3 (12072) - http://www.bohemiancoding.com/sketch -->
    <title>Slice 1</title>
    <desc>Created with Sketch.</desc>
    <defs></defs>
    <g id="Page-1" stroke="none" stroke-width="1" fill="none" fill-rule="evenodd" sketch:type="MSPage">
        <path d="M252.163,266.894 C260.298,266.894 266.893,260.299 266.893,252.164 L266.893,14.73 C266.893,6.593 260.298,0 252.163,0 L14.731,0 C6.593,0 0,6.593 0,14.73 L0,252.164 C0,260.299 6.593,266.894 14.731,266.894 L252.163,266.894" id="Fill-15" fill="#395185" sketch:type="MSShapeGroup"></path>
        <path d="M183.377,266.584 L183.377,163.229 L218.069,163.229 L223.263,122.949 L183.377,122.949 L183.377,97.232 C183.377,85.57 186.615,77.623 203.339,77.623 L224.669,77.613 L224.669,41.587 C220.978,41.097 208.318,40 193.588,40 C162.835,40 141.781,58.771 141.781,93.244 L141.781,122.949 L107,122.949 L107,163.229 L141.781,163.229 L141.781,266.584 L183.377,266.584" id="Fill-16" fill="#FFFFFF" sketch:type="MSShapeGroup"></path>
    </g>
</svg>